<?xml version="1.0" standalone="no"?>
<svg xmlns:xlink="http://www.w3.org/1999/xlink" id="wave" style="transform:rotate(180deg); transition: 0.3s" viewBox="0 0 1440 490" version="1.1" xmlns="http://www.w3.org/2000/svg"><defs><linearGradient id="sw-gradient-0" x1="0" x2="0" y1="1" y2="0"><stop stop-color="rgba(71, 71, 191, 1)" offset="0%"/><stop stop-color="rgba(110, 45, 200, 1)" offset="100%"/></linearGradient></defs><path style="transform:translate(0, 0px); opacity:1" fill="url(#sw-gradient-0)" d="M0,147L60,147C120,147,240,147,360,179.7C480,212,600,278,720,294C840,310,960,278,1080,277.7C1200,278,1320,310,1440,343C1560,376,1680,408,1800,424.7C1920,441,2040,441,2160,400.2C2280,359,2400,278,2520,212.3C2640,147,2760,98,2880,65.3C3000,33,3120,16,3240,8.2C3360,0,3480,0,3600,0C3720,0,3840,0,3960,57.2C4080,114,4200,229,4320,228.7C4440,229,4560,114,4680,114.3C4800,114,4920,229,5040,245C5160,261,5280,180,5400,130.7C5520,82,5640,65,5760,114.3C5880,163,6000,278,6120,334.8C6240,392,6360,392,6480,383.8C6600,376,6720,359,6840,318.5C6960,278,7080,212,7200,187.8C7320,163,7440,180,7560,155.2C7680,131,7800,65,7920,98C8040,131,8160,261,8280,310.3C8400,359,8520,327,8580,310.3L8640,294L8640,490L8580,490C8520,490,8400,490,8280,490C8160,490,8040,490,7920,490C7800,490,7680,490,7560,490C7440,490,7320,490,7200,490C7080,490,6960,490,6840,490C6720,490,6600,490,6480,490C6360,490,6240,490,6120,490C6000,490,5880,490,5760,490C5640,490,5520,490,5400,490C5280,490,5160,490,5040,490C4920,490,4800,490,4680,490C4560,490,4440,490,4320,490C4200,490,4080,490,3960,490C3840,490,3720,490,3600,490C3480,490,3360,490,3240,490C3120,490,3000,490,2880,490C2760,490,2640,490,2520,490C2400,490,2280,490,2160,490C2040,490,1920,490,1800,490C1680,490,1560,490,1440,490C1320,490,1200,490,1080,490C960,490,840,490,720,490C600,490,480,490,360,490C240,490,120,490,60,490L0,490Z"/><defs><linearGradient id="sw-gradient-1" x1="0" x2="0" y1="1" y2="0"><stop stop-color="rgba(71, 71, 191, 1)" offset="0%"/><stop stop-color="rgba(71, 71, 191, 1)" offset="100%"/></linearGradient></defs><path style="transform:translate(0, 50px); opacity:0.9" fill="url(#sw-gradient-1)" d="M0,196L60,212.3C120,229,240,261,360,261.3C480,261,600,229,720,187.8C840,147,960,98,1080,138.8C1200,180,1320,310,1440,326.7C1560,343,1680,245,1800,196C1920,147,2040,147,2160,155.2C2280,163,2400,180,2520,196C2640,212,2760,229,2880,196C3000,163,3120,82,3240,40.8C3360,0,3480,0,3600,0C3720,0,3840,0,3960,16.3C4080,33,4200,65,4320,73.5C4440,82,4560,65,4680,106.2C4800,147,4920,245,5040,236.8C5160,229,5280,114,5400,89.8C5520,65,5640,131,5760,179.7C5880,229,6000,261,6120,277.7C6240,294,6360,294,6480,253.2C6600,212,6720,131,6840,81.7C6960,33,7080,16,7200,49C7320,82,7440,163,7560,163.3C7680,163,7800,82,7920,106.2C8040,131,8160,261,8280,285.8C8400,310,8520,229,8580,187.8L8640,147L8640,490L8580,490C8520,490,8400,490,8280,490C8160,490,8040,490,7920,490C7800,490,7680,490,7560,490C7440,490,7320,490,7200,490C7080,490,6960,490,6840,490C6720,490,6600,490,6480,490C6360,490,6240,490,6120,490C6000,490,5880,490,5760,490C5640,490,5520,490,5400,490C5280,490,5160,490,5040,490C4920,490,4800,490,4680,490C4560,490,4440,490,4320,490C4200,490,4080,490,3960,490C3840,490,3720,490,3600,490C3480,490,3360,490,3240,490C3120,490,3000,490,2880,490C2760,490,2640,490,2520,490C2400,490,2280,490,2160,490C2040,490,1920,490,1800,490C1680,490,1560,490,1440,490C1320,490,1200,490,1080,490C960,490,840,490,720,490C600,490,480,490,360,490C240,490,120,490,60,490L0,490Z"/></svg>